<svg width="23" height="26" viewBox="0 0 23 26" fill="none" xmlns="http://www.w3.org/2000/svg">
<path d="M19.4668 15.2L20.6338 12.1433C20.8291 11.6306 20.4531 11.0838 19.9013 11.0838H17.0449C17.582 10.1609 17.914 9.10134 17.914 7.95876V7.94411C19.8281 7.56325 21.039 7.0115 21.039 6.39626C21.039 5.74685 19.706 5.17067 17.6162 4.78493C17.167 3.18337 16.2978 1.57204 15.6338 0.741964C15.1699 0.160909 14.3691 -0.0197547 13.705 0.312277L12.3574 0.986105C11.9179 1.20583 11.4004 1.20583 10.9609 0.986105L9.61325 0.312277C8.94919 -0.0197547 8.14841 0.160909 7.68454 0.741964C7.02536 1.57204 6.15134 3.18337 5.70212 4.78493C3.61716 5.17067 2.28415 5.74685 2.28415 6.39626C2.28415 7.0115 3.49509 7.56325 5.40915 7.94411V7.95876C5.40915 9.10134 5.74118 10.1609 6.27829 11.0838H3.47067C2.90915 11.0838 2.53317 11.6551 2.7529 12.1726L4.01266 15.1121C2.05466 16.2498 0.721649 18.3445 0.721649 20.7713V22.9588C0.721649 24.1648 1.70309 25.1463 2.90915 25.1463H20.4091C21.6152 25.1463 22.5966 24.1648 22.5966 22.9588V20.7713C22.5966 18.408 21.3369 16.3572 19.4668 15.2V15.2ZM9.3154 23.5838L7.28415 14.2088L9.70602 15.7713L10.8779 17.7244L9.3154 23.5838ZM14.0029 23.5838L12.4404 17.7244L13.6123 15.7713L16.0341 14.2088L14.0029 23.5838ZM16.039 9.00857C15.8486 9.58962 15.6972 10.2097 15.2334 10.6394C14.7402 11.0935 12.8896 11.7332 12.1084 9.41872C11.9716 9.00857 11.3564 9.00857 11.2148 9.41872C10.3847 11.8699 8.48044 11.0008 8.08981 10.6394C7.62595 10.2097 7.4697 9.58962 7.28415 9.00857C7.24509 8.8865 6.97653 8.73025 6.97653 8.72536V8.19802C8.35837 8.3738 9.95505 8.48122 11.664 8.48122C13.373 8.48122 14.9697 8.37868 16.3515 8.19802V8.72536C16.3466 8.73025 16.0781 8.88161 16.039 9.00857Z" fill="black"/>
</svg>
