<svg width="83" height="86" viewBox="0 0 83 86" fill="none" xmlns="http://www.w3.org/2000/svg">
<path d="M23.6026 53.1195C22.7266 51.2059 22.6727 50.6533 24.5998 50.0064C28.0498 48.9283 25.6779 51.2463 30.4217 56.6369H30.4621V43.9824C30.6238 37.2172 36.3918 31.557 43.6287 31.557C50.8926 31.557 56.7953 37.4193 56.7953 44.6023C56.7953 53.1465 48.6016 59.8578 39.4779 57.176C38.0629 56.61 39.1949 52.9039 40.6235 53.3217C47.766 53.3217 52.6715 51.9605 52.6715 44.6428C52.6715 36.4221 42.2811 32.5678 36.9174 38.6322C33.7504 42.19 34.5455 44.3059 34.5455 59.8713C41.3781 64.049 50.4883 62.8361 56.1619 57.1625C59.5041 53.8203 61.3504 49.3461 61.3504 44.6293C61.3504 39.8855 59.4906 35.4383 56.1215 32.0557C52.7793 28.7135 48.332 26.8672 43.5479 26.8672C38.7637 26.8672 34.276 28.727 30.9473 32.0557C30.9069 32.0961 28.791 34.2793 28.0903 35.2766L28.0229 35.3574C27.5781 35.9908 27.1738 36.5838 25.3141 36.1795C24.3842 35.9504 23.3869 35.3979 23.3869 34.5893V9.41504C23.3869 8.74121 23.9125 8 24.802 8H57.3209C58.4395 8 58.4395 9.56328 58.4395 10.035C58.4395 10.5605 58.4395 12.0699 57.3209 12.0699H27.2412V29.9803H27.2817C41.3242 15.183 65.3934 25.1287 65.3934 44.6562C65.3934 68.658 32.4028 74.3451 23.6026 53.1195ZM32.1332 17.9727C32.0658 18.5387 32.7531 21.2744 34.1008 20.7488C50.9195 14.3475 61.4313 26.1934 62.3207 26.1934C62.9676 26.1934 65.3934 24.1314 64.2479 23.1207C51.6877 11.1266 32.6453 15.4391 32.1332 17.9727ZM62.6442 62.607C47.8199 77.4178 22.3492 70.8008 17.902 48.5645C17.902 46.9203 13.8051 47.5672 14.0072 49.0092C17.2416 72.3775 47.1596 83.6305 65.4338 65.3563C66.3637 64.3051 63.7358 61.5289 62.6442 62.607ZM38.4672 48.0389C38.4672 48.5779 39.0467 49.0227 39.2084 49.1844C39.6127 49.5887 40.0305 49.7773 40.3539 49.7773C40.866 49.7773 40.7043 49.8043 43.3592 47.1494C46.0006 49.7504 45.9332 49.7773 46.3645 49.7773C47.0922 49.7773 48.8576 48.3758 47.8065 47.3246L45.475 44.9932L47.9277 42.5404C48.7768 41.624 46.5666 39.6025 45.7445 40.4246L43.3322 42.8369C40.8256 40.3033 40.8526 40.209 40.4348 40.209C39.761 40.209 38.009 41.7857 38.7637 42.5404L41.2164 44.9932C38.7772 47.4055 38.4672 47.5807 38.4672 48.0389Z" fill="black"/>
</svg>
