<svg width="25" height="23" viewBox="0 0 25 23" fill="none" xmlns="http://www.w3.org/2000/svg">
<path d="M24.3056 12.5H20.8333V16.6667L19.4444 15.7422L18.0556 16.6667V12.5H14.5833C14.2014 12.5 13.8889 12.8125 13.8889 13.1944V21.5278C13.8889 21.9097 14.2014 22.2222 14.5833 22.2222H24.3056C24.6875 22.2222 25 21.9097 25 21.5278V13.1944C25 12.8125 24.6875 12.5 24.3056 12.5ZM7.63889 9.72222H17.3611C17.7431 9.72222 18.0556 9.40972 18.0556 9.02778V0.694444C18.0556 0.3125 17.7431 0 17.3611 0H13.8889V4.16667L12.5 3.24219L11.1111 4.16667V0H7.63889C7.25694 0 6.94444 0.3125 6.94444 0.694444V9.02778C6.94444 9.40972 7.25694 9.72222 7.63889 9.72222ZM10.4167 12.5H6.94444V16.6667L5.55556 15.7422L4.16667 16.6667V12.5H0.694444C0.3125 12.5 0 12.8125 0 13.1944V21.5278C0 21.9097 0.3125 22.2222 0.694444 22.2222H10.4167C10.7986 22.2222 11.1111 21.9097 11.1111 21.5278V13.1944C11.1111 12.8125 10.7986 12.5 10.4167 12.5Z" fill="black"/>
</svg>
