<svg width="25" height="25" viewBox="0 0 25 25" fill="none" xmlns="http://www.w3.org/2000/svg">
<path d="M11.5547 11.5413C10.9443 12.1516 10.9443 13.1409 11.5547 13.7507C12.1645 14.3611 13.1543 14.3611 13.7641 13.7507C14.3745 13.1404 14.3745 12.1511 13.7641 11.5413C13.1538 10.9314 12.1645 10.9314 11.5547 11.5413ZM12.6591 0.536865C5.97116 0.536865 0.549774 5.95825 0.549774 12.6462C0.549774 19.3342 5.97116 24.7556 12.6591 24.7556C19.3471 24.7556 24.7685 19.3342 24.7685 12.6462C24.7685 5.95825 19.3471 0.536865 12.6591 0.536865ZM18.8183 7.76587L15.5971 14.8142C15.4413 15.1551 15.168 15.4284 14.8271 15.5842L7.77927 18.8054C6.96628 19.177 6.12839 18.3391 6.49997 17.5261L9.72165 10.4778C9.87745 10.1369 10.1508 9.86357 10.4917 9.70776L17.5395 6.48657C18.3525 6.11548 19.1899 6.95288 18.8183 7.76587V7.76587Z" fill="black"/>
</svg>
